<?xml version="1.0" encoding="UTF-8"?>
<svg xmlns="http://www.w3.org/2000/svg" viewBox="0 0 48 48" width="48" height="48" aria-hidden="true" focusable="false">
  <path fill="#FFC107" d="M43.6 20.5h-1.9V20H24v8h11.3C33.6 33.5 29.3 36 24 36c-7.2 0-13-5.8-13-13s5.8-13 13-13c3.3 0 6.3 1.2 8.6 3.2l5.7-5.7C34.6 4 29.6 2 24 2 12.9 2 4 10.9 4 22s8.9 20 20 20 20-8.9 20-20c0-1.3-.1-2.7-.4-3.9z"/>
  <path fill="#FF3D00" d="M6.3 14.7l6.6 4.8C14.8 16 19 13 24 13c3.3 0 6.3 1.2 8.6 3.2l5.7-5.7C34.6 4 29.6 2 24 2 16.4 2 9.8 6.2 6.3 14.7z"/>
  <path fill="#4CAF50" d="M24 42c5.2 0 10-2 13.5-5.2l-6.2-5.1C29.1 33.8 26.8 35 24 35c-5.3 0-9.6-3.4-11.2-8.1l-6.6 5.1C9.7 38.7 16.2 42 24 42z"/>
  <path fill="#1976D2" d="M43.6 20.5h-1.9V20H24v8h11.3c-1.8 3.5-5.5 6-9.3 6-5.3 0-9.6-3.4-11.2-8.1l-6.6 5.1C9.7 38.7 16.2 42 24 42c7.6 0 14-5.1 16.1-12h0.5v-9.5z"/>
</svg>
