<?xml version="1.0" encoding="UTF-8"?>
<!-- Temporary logo placeholder (vector). Replace with final asset anytime. -->
<svg xmlns="http://www.w3.org/2000/svg" width="512" height="512" viewBox="0 0 512 512" fill="none">
  <defs>
    <linearGradient id="g" x1="0" x2="1" y1="0" y2="1">
      <stop offset="0%" stop-color="#0FA3B1"/>
      <stop offset="100%" stop-color="#56CC35"/>
    </linearGradient>
  </defs>
  <!-- Mic stand base -->
  <ellipse cx="256" cy="430" rx="80" ry="24" fill="url(#g)" opacity="0.8"/>
  <!-- Mic body -->
  <rect x="196" y="90" width="120" height="170" rx="28" stroke="url(#g)" stroke-width="18" fill="none"/>
  <rect x="212" y="110" width="88" height="110" rx="16" fill="url(#g)"/>
  <!-- Plus symbols forming stand -->
  <g fill="url(#g)">
    <path d="M256 284c-10 0-18 8-18 18v14h-14c-10 0-18 8-18 18s8 18 18 18h14v14c0 10 8 18 18 18s18-8 18-18v-14h14c10 0 18-8 18-18s-8-18-18-18h-14v-14c0-10-8-18-18-18z"/>
    <path d="M256 370c-9 0-16 7-16 16v10h-10c-9 0-16 7-16 16s7 16 16 16h10v10c0 9 7 16 16 16s16-7 16-16v-10h10c9 0 16-7 16-16s-7-16-16-16h-10v-10c0-9-7-16-16-16z" opacity="0.85"/>
  </g>
</svg>
